DBRep_DrawableShape

CASCADE Topology V3, (c) Open Cascade
Locations 0
Curve2ds 6
1 0 33.541019662496844 1 0 
2 0 0 1 0 -0 1 4.9999999999999991
1 6.2831853071795862 -0 0 1 
1 0 -0 0 1 
1 0 0 1 0 
2 0 0 1 0 -0 1 20
Curves 3
2 0 0 29.999999999999996 0 0 1 1 0 -0 -0 1 0 4.9999999999999991
1 20 -4.898587196589413e-15 0 -0.44721359549995798 1.0953573965284054e-16 0.89442719099991586 
2 0 0 0 0 0 1 1 0 -0 -0 1 0 20
Polygon3D 0
PolygonOnTriangulations 0
Surfaces 3
3 0 0 0 0 0 1 1 0 -0 -0 1 0 20
-0.46364760900080615
1 0 0 29.999999999999996 0 0 1 1 0 -0 -0 1 0 
1 0 0 0 0 0 1 1 0 -0 -0 1 0 
Triangulations 0

TShapes 13
Ve
1e-07
5 -1.22464679914735e-15 30
0 0

0101101
*
Ed
 1e-07 1 1 0
1  1 0 0 6.28318530717959
2  1 1 0 0 6.28318530717959
2  2 2 0 0 6.28318530717959
0

0101000
+13 0 -13 0 *
Ve
1e-07
20 -4.89858719658941e-15 0
0 0

0101101
*
Ed
 1e-07 1 1 0
1  2 0 0 33.5410196624968
3  3 4CN 1 0 0 33.5410196624968
0

0101000
-13 0 +11 0 *
Ed
 1e-07 1 1 0
1  3 0 0 6.28318530717959
2  5 1 0 0 6.28318530717959
2  6 3 0 0 6.28318530717959
0

0101000
+11 0 -11 0 *
Wi

0101100
-12 0 +10 0 +9 0 -10 0 *
Fa
0  1e-07 1 0

0111000
+8 0 *
Wi

0101100
+12 0 *
Fa
0  1e-07 2 0

0111000
+6 0 *
Wi

0101100
-9 0 *
Fa
0  1e-07 3 0

0111000
-4 0 *
Sh

0101100
+7 0 +5 0 -3 0 *
So

1100000
+2 0 *

+1 0 