DBRep_DrawableShape

CASCADE Topology V3, (c) Open Cascade
Locations 25
1
              1               0               0               0 
              0               1               0               0 
              0               0               1               0 
1
              1               0               0               0 
              0               1               0              50 
              0               0               1               0 
1
              1               0               0               0 
              0               1               0             100 
              0               0               1               0 
1
              1               0               0               0 
              0               1               0             150 
              0               0               1               0 
1
              1               0               0               0 
              0               1               0             200 
              0               0               1               0 
1
              1               0               0              50 
              0               1               0               0 
              0               0               1               0 
1
              1               0               0              50 
              0               1               0              50 
              0               0               1               0 
1
              1               0               0              50 
              0               1               0             100 
              0               0               1               0 
1
              1               0               0              50 
              0               1               0             150 
              0               0               1               0 
1
              1               0               0              50 
              0               1               0             200 
              0               0               1               0 
1
              1               0               0             100 
              0               1               0               0 
              0               0               1               0 
1
              1               0               0             100 
              0               1               0              50 
              0               0               1               0 
1
              1               0               0             100 
              0               1               0             100 
              0               0               1               0 
1
              1               0               0             100 
              0               1               0             150 
              0               0               1               0 
1
              1               0               0             100 
              0               1               0             200 
              0               0               1               0 
1
              1               0               0             150 
              0               1               0               0 
              0               0               1               0 
1
              1               0               0             150 
              0               1               0              50 
              0               0               1               0 
1
              1               0               0             150 
              0               1               0             100 
              0               0               1               0 
1
              1               0               0             150 
              0               1               0             150 
              0               0               1               0 
1
              1               0               0             150 
              0               1               0             200 
              0               0               1               0 
1
              1               0               0             200 
              0               1               0               0 
              0               0               1               0 
1
              1               0               0             200 
              0               1               0              50 
              0               0               1               0 
1
              1               0               0             200 
              0               1               0             100 
              0               0               1               0 
1
              1               0               0             200 
              0               1               0             150 
              0               0               1               0 
1
              1               0               0             200 
              0               1               0             200 
              0               0               1               0 
Curve2ds 100
1 0 0 1 0 
1 0 6.2831853071795862 1 0 
1 6.2831853071795862 -0 0 1 
1 0 -0 0 1 
1 0 0 1 0 
1 0 6.2831853071795862 1 0 
1 6.2831853071795862 -0 0 1 
1 0 -0 0 1 
1 0 0 1 0 
1 0 6.2831853071795862 1 0 
1 6.2831853071795862 -0 0 1 
1 0 -0 0 1 
1 0 0 1 0 
1 0 6.2831853071795862 1 0 
1 6.2831853071795862 -0 0 1 
1 0 -0 0 1 
1 0 0 1 0 
1 0 6.2831853071795862 1 0 
1 6.2831853071795862 -0 0 1 
1 0 -0 0 1 
1 0 0 1 0 
1 0 6.2831853071795862 1 0 
1 6.2831853071795862 -0 0 1 
1 0 -0 0 1 
1 0 0 1 0 
1 0 6.2831853071795862 1 0 
1 6.2831853071795862 -0 0 1 
1 0 -0 0 1 
1 0 0 1 0 
1 0 6.2831853071795862 1 0 
1 6.2831853071795862 -0 0 1 
1 0 -0 0 1 
1 0 0 1 0 
1 0 6.2831853071795862 1 0 
1 6.2831853071795862 -0 0 1 
1 0 -0 0 1 
1 0 0 1 0 
1 0 6.2831853071795862 1 0 
1 6.2831853071795862 -0 0 1 
1 0 -0 0 1 
1 0 0 1 0 
1 0 6.2831853071795862 1 0 
1 6.2831853071795862 -0 0 1 
1 0 -0 0 1 
1 0 0 1 0 
1 0 6.2831853071795862 1 0 
1 6.2831853071795862 -0 0 1 
1 0 -0 0 1 
1 0 0 1 0 
1 0 6.2831853071795862 1 0 
1 6.2831853071795862 -0 0 1 
1 0 -0 0 1 
1 0 0 1 0 
1 0 6.2831853071795862 1 0 
1 6.2831853071795862 -0 0 1 
1 0 -0 0 1 
1 0 0 1 0 
1 0 6.2831853071795862 1 0 
1 6.2831853071795862 -0 0 1 
1 0 -0 0 1 
1 0 0 1 0 
1 0 6.2831853071795862 1 0 
1 6.2831853071795862 -0 0 1 
1 0 -0 0 1 
1 0 0 1 0 
1 0 6.2831853071795862 1 0 
1 6.2831853071795862 -0 0 1 
1 0 -0 0 1 
1 0 0 1 0 
1 0 6.2831853071795862 1 0 
1 6.2831853071795862 -0 0 1 
1 0 -0 0 1 
1 0 0 1 0 
1 0 6.2831853071795862 1 0 
1 6.2831853071795862 -0 0 1 
1 0 -0 0 1 
1 0 0 1 0 
1 0 6.2831853071795862 1 0 
1 6.2831853071795862 -0 0 1 
1 0 -0 0 1 
1 0 0 1 0 
1 0 6.2831853071795862 1 0 
1 6.2831853071795862 -0 0 1 
1 0 -0 0 1 
1 0 0 1 0 
1 0 6.2831853071795862 1 0 
1 6.2831853071795862 -0 0 1 
1 0 -0 0 1 
1 0 0 1 0 
1 0 6.2831853071795862 1 0 
1 6.2831853071795862 -0 0 1 
1 0 -0 0 1 
1 0 0 1 0 
1 0 6.2831853071795862 1 0 
1 6.2831853071795862 -0 0 1 
1 0 -0 0 1 
1 0 0 1 0 
1 0 6.2831853071795862 1 0 
1 6.2831853071795862 -0 0 1 
1 0 -0 0 1 
Curves 50
2 0 0 -1.4695761589768238e-15 0 0 1 1 0 -0 -0 1 0 26
2 20 -4.898587196589413e-15 0 -2.4492935982947064e-16 -1 0 1 -2.4492935982947064e-16 0 0 0 1 6
2 0 0 -1.4695761589768238e-15 0 0 1 1 0 -0 -0 1 0 26
2 20 -4.898587196589413e-15 0 -2.4492935982947064e-16 -1 0 1 -2.4492935982947064e-16 0 0 0 1 6
2 0 0 -1.4695761589768238e-15 0 0 1 1 0 -0 -0 1 0 26
2 20 -4.898587196589413e-15 0 -2.4492935982947064e-16 -1 0 1 -2.4492935982947064e-16 0 0 0 1 6
2 0 0 -1.4695761589768238e-15 0 0 1 1 0 -0 -0 1 0 26
2 20 -4.898587196589413e-15 0 -2.4492935982947064e-16 -1 0 1 -2.4492935982947064e-16 0 0 0 1 6
2 0 0 -1.4695761589768238e-15 0 0 1 1 0 -0 -0 1 0 26
2 20 -4.898587196589413e-15 0 -2.4492935982947064e-16 -1 0 1 -2.4492935982947064e-16 0 0 0 1 6
2 0 0 -1.4695761589768238e-15 0 0 1 1 0 -0 -0 1 0 26
2 20 -4.898587196589413e-15 0 -2.4492935982947064e-16 -1 0 1 -2.4492935982947064e-16 0 0 0 1 6
2 0 0 -1.4695761589768238e-15 0 0 1 1 0 -0 -0 1 0 26
2 20 -4.898587196589413e-15 0 -2.4492935982947064e-16 -1 0 1 -2.4492935982947064e-16 0 0 0 1 6
2 0 0 -1.4695761589768238e-15 0 0 1 1 0 -0 -0 1 0 26
2 20 -4.898587196589413e-15 0 -2.4492935982947064e-16 -1 0 1 -2.4492935982947064e-16 0 0 0 1 6
2 0 0 -1.4695761589768238e-15 0 0 1 1 0 -0 -0 1 0 26
2 20 -4.898587196589413e-15 0 -2.4492935982947064e-16 -1 0 1 -2.4492935982947064e-16 0 0 0 1 6
2 0 0 -1.4695761589768238e-15 0 0 1 1 0 -0 -0 1 0 26
2 20 -4.898587196589413e-15 0 -2.4492935982947064e-16 -1 0 1 -2.4492935982947064e-16 0 0 0 1 6
2 0 0 -1.4695761589768238e-15 0 0 1 1 0 -0 -0 1 0 26
2 20 -4.898587196589413e-15 0 -2.4492935982947064e-16 -1 0 1 -2.4492935982947064e-16 0 0 0 1 6
2 0 0 -1.4695761589768238e-15 0 0 1 1 0 -0 -0 1 0 26
2 20 -4.898587196589413e-15 0 -2.4492935982947064e-16 -1 0 1 -2.4492935982947064e-16 0 0 0 1 6
2 0 0 -1.4695761589768238e-15 0 0 1 1 0 -0 -0 1 0 26
2 20 -4.898587196589413e-15 0 -2.4492935982947064e-16 -1 0 1 -2.4492935982947064e-16 0 0 0 1 6
2 0 0 -1.4695761589768238e-15 0 0 1 1 0 -0 -0 1 0 26
2 20 -4.898587196589413e-15 0 -2.4492935982947064e-16 -1 0 1 -2.4492935982947064e-16 0 0 0 1 6
2 0 0 -1.4695761589768238e-15 0 0 1 1 0 -0 -0 1 0 26
2 20 -4.898587196589413e-15 0 -2.4492935982947064e-16 -1 0 1 -2.4492935982947064e-16 0 0 0 1 6
2 0 0 -1.4695761589768238e-15 0 0 1 1 0 -0 -0 1 0 26
2 20 -4.898587196589413e-15 0 -2.4492935982947064e-16 -1 0 1 -2.4492935982947064e-16 0 0 0 1 6
2 0 0 -1.4695761589768238e-15 0 0 1 1 0 -0 -0 1 0 26
2 20 -4.898587196589413e-15 0 -2.4492935982947064e-16 -1 0 1 -2.4492935982947064e-16 0 0 0 1 6
2 0 0 -1.4695761589768238e-15 0 0 1 1 0 -0 -0 1 0 26
2 20 -4.898587196589413e-15 0 -2.4492935982947064e-16 -1 0 1 -2.4492935982947064e-16 0 0 0 1 6
2 0 0 -1.4695761589768238e-15 0 0 1 1 0 -0 -0 1 0 26
2 20 -4.898587196589413e-15 0 -2.4492935982947064e-16 -1 0 1 -2.4492935982947064e-16 0 0 0 1 6
2 0 0 -1.4695761589768238e-15 0 0 1 1 0 -0 -0 1 0 26
2 20 -4.898587196589413e-15 0 -2.4492935982947064e-16 -1 0 1 -2.4492935982947064e-16 0 0 0 1 6
2 0 0 -1.4695761589768238e-15 0 0 1 1 0 -0 -0 1 0 26
2 20 -4.898587196589413e-15 0 -2.4492935982947064e-16 -1 0 1 -2.4492935982947064e-16 0 0 0 1 6
2 0 0 -1.4695761589768238e-15 0 0 1 1 0 -0 -0 1 0 26
2 20 -4.898587196589413e-15 0 -2.4492935982947064e-16 -1 0 1 -2.4492935982947064e-16 0 0 0 1 6
2 0 0 -1.4695761589768238e-15 0 0 1 1 0 -0 -0 1 0 26
2 20 -4.898587196589413e-15 0 -2.4492935982947064e-16 -1 0 1 -2.4492935982947064e-16 0 0 0 1 6
2 0 0 -1.4695761589768238e-15 0 0 1 1 0 -0 -0 1 0 26
2 20 -4.898587196589413e-15 0 -2.4492935982947064e-16 -1 0 1 -2.4492935982947064e-16 0 0 0 1 6
2 0 0 -1.4695761589768238e-15 0 0 1 1 0 -0 -0 1 0 26
2 20 -4.898587196589413e-15 0 -2.4492935982947064e-16 -1 0 1 -2.4492935982947064e-16 0 0 0 1 6
Polygon3D 0
PolygonOnTriangulations 0
Surfaces 25
5 0 0 0 0 0 1 1 0 -0 -0 1 0 20 6
5 0 0 0 0 0 1 1 0 -0 -0 1 0 20 6
5 0 0 0 0 0 1 1 0 -0 -0 1 0 20 6
5 0 0 0 0 0 1 1 0 -0 -0 1 0 20 6
5 0 0 0 0 0 1 1 0 -0 -0 1 0 20 6
5 0 0 0 0 0 1 1 0 -0 -0 1 0 20 6
5 0 0 0 0 0 1 1 0 -0 -0 1 0 20 6
5 0 0 0 0 0 1 1 0 -0 -0 1 0 20 6
5 0 0 0 0 0 1 1 0 -0 -0 1 0 20 6
5 0 0 0 0 0 1 1 0 -0 -0 1 0 20 6
5 0 0 0 0 0 1 1 0 -0 -0 1 0 20 6
5 0 0 0 0 0 1 1 0 -0 -0 1 0 20 6
5 0 0 0 0 0 1 1 0 -0 -0 1 0 20 6
5 0 0 0 0 0 1 1 0 -0 -0 1 0 20 6
5 0 0 0 0 0 1 1 0 -0 -0 1 0 20 6
5 0 0 0 0 0 1 1 0 -0 -0 1 0 20 6
5 0 0 0 0 0 1 1 0 -0 -0 1 0 20 6
5 0 0 0 0 0 1 1 0 -0 -0 1 0 20 6
5 0 0 0 0 0 1 1 0 -0 -0 1 0 20 6
5 0 0 0 0 0 1 1 0 -0 -0 1 0 20 6
5 0 0 0 0 0 1 1 0 -0 -0 1 0 20 6
5 0 0 0 0 0 1 1 0 -0 -0 1 0 20 6
5 0 0 0 0 0 1 1 0 -0 -0 1 0 20 6
5 0 0 0 0 0 1 1 0 -0 -0 1 0 20 6
5 0 0 0 0 0 1 1 0 -0 -0 1 0 20 6
Triangulations 0

TShapes 176
Ve
1e-07
26 -6.36816335556624e-15 -1.46957615897682e-15
0 0

0101101
*
Ed
 1e-07 1 1 0
1  1 0 0 6.28318530717959
3  1 2CN 1 0 0 6.28318530717959
0

0101000
+176 0 -176 0 *
Ed
 1e-07 1 1 0
1  2 0 0 6.28318530717959
3  3 4CN 1 0 0 6.28318530717959
0

0101000
+176 0 -176 0 *
Wi

0101100
-175 0 +174 0 +175 0 -174 0 *
Fa
0  1e-07 1 0

0111000
+173 0 *
Sh

0101100
+172 0 *
So

0100000
+171 0 *
Ve
1e-07
26 -6.36816335556624e-15 -1.46957615897682e-15
0 0

0101101
*
Ed
 1e-07 1 1 0
1  3 0 0 6.28318530717959
3  5 6CN 2 0 0 6.28318530717959
0

0101000
+169 0 -169 0 *
Ed
 1e-07 1 1 0
1  4 0 0 6.28318530717959
3  7 8CN 2 0 0 6.28318530717959
0

0101000
+169 0 -169 0 *
Wi

0101100
-168 0 +167 0 +168 0 -167 0 *
Fa
0  1e-07 2 0

0111000
+166 0 *
Sh

0101100
+165 0 *
So

0100000
+164 0 *
Ve
1e-07
26 -6.36816335556624e-15 -1.46957615897682e-15
0 0

0101101
*
Ed
 1e-07 1 1 0
1  5 0 0 6.28318530717959
3  9 10CN 3 0 0 6.28318530717959
0

0101000
+162 0 -162 0 *
Ed
 1e-07 1 1 0
1  6 0 0 6.28318530717959
3  11 12CN 3 0 0 6.28318530717959
0

0101000
+162 0 -162 0 *
Wi

0101100
-161 0 +160 0 +161 0 -160 0 *
Fa
0  1e-07 3 0

0111000
+159 0 *
Sh

0101100
+158 0 *
So

0100000
+157 0 *
Ve
1e-07
26 -6.36816335556624e-15 -1.46957615897682e-15
0 0

0101101
*
Ed
 1e-07 1 1 0
1  7 0 0 6.28318530717959
3  13 14CN 4 0 0 6.28318530717959
0

0101000
+155 0 -155 0 *
Ed
 1e-07 1 1 0
1  8 0 0 6.28318530717959
3  15 16CN 4 0 0 6.28318530717959
0

0101000
+155 0 -155 0 *
Wi

0101100
-154 0 +153 0 +154 0 -153 0 *
Fa
0  1e-07 4 0

0111000
+152 0 *
Sh

0101100
+151 0 *
So

0100000
+150 0 *
Ve
1e-07
26 -6.36816335556624e-15 -1.46957615897682e-15
0 0

0101101
*
Ed
 1e-07 1 1 0
1  9 0 0 6.28318530717959
3  17 18CN 5 0 0 6.28318530717959
0

0101000
+148 0 -148 0 *
Ed
 1e-07 1 1 0
1  10 0 0 6.28318530717959
3  19 20CN 5 0 0 6.28318530717959
0

0101000
+148 0 -148 0 *
Wi

0101100
-147 0 +146 0 +147 0 -146 0 *
Fa
0  1e-07 5 0

0111000
+145 0 *
Sh

0101100
+144 0 *
So

0100000
+143 0 *
Ve
1e-07
26 -6.36816335556624e-15 -1.46957615897682e-15
0 0

0101101
*
Ed
 1e-07 1 1 0
1  11 0 0 6.28318530717959
3  21 22CN 6 0 0 6.28318530717959
0

0101000
+141 0 -141 0 *
Ed
 1e-07 1 1 0
1  12 0 0 6.28318530717959
3  23 24CN 6 0 0 6.28318530717959
0

0101000
+141 0 -141 0 *
Wi

0101100
-140 0 +139 0 +140 0 -139 0 *
Fa
0  1e-07 6 0

0111000
+138 0 *
Sh

0101100
+137 0 *
So

0100000
+136 0 *
Ve
1e-07
26 -6.36816335556624e-15 -1.46957615897682e-15
0 0

0101101
*
Ed
 1e-07 1 1 0
1  13 0 0 6.28318530717959
3  25 26CN 7 0 0 6.28318530717959
0

0101000
+134 0 -134 0 *
Ed
 1e-07 1 1 0
1  14 0 0 6.28318530717959
3  27 28CN 7 0 0 6.28318530717959
0

0101000
+134 0 -134 0 *
Wi

0101100
-133 0 +132 0 +133 0 -132 0 *
Fa
0  1e-07 7 0

0111000
+131 0 *
Sh

0101100
+130 0 *
So

0100000
+129 0 *
Ve
1e-07
26 -6.36816335556624e-15 -1.46957615897682e-15
0 0

0101101
*
Ed
 1e-07 1 1 0
1  15 0 0 6.28318530717959
3  29 30CN 8 0 0 6.28318530717959
0

0101000
+127 0 -127 0 *
Ed
 1e-07 1 1 0
1  16 0 0 6.28318530717959
3  31 32CN 8 0 0 6.28318530717959
0

0101000
+127 0 -127 0 *
Wi

0101100
-126 0 +125 0 +126 0 -125 0 *
Fa
0  1e-07 8 0

0111000
+124 0 *
Sh

0101100
+123 0 *
So

0100000
+122 0 *
Ve
1e-07
26 -6.36816335556624e-15 -1.46957615897682e-15
0 0

0101101
*
Ed
 1e-07 1 1 0
1  17 0 0 6.28318530717959
3  33 34CN 9 0 0 6.28318530717959
0

0101000
+120 0 -120 0 *
Ed
 1e-07 1 1 0
1  18 0 0 6.28318530717959
3  35 36CN 9 0 0 6.28318530717959
0

0101000
+120 0 -120 0 *
Wi

0101100
-119 0 +118 0 +119 0 -118 0 *
Fa
0  1e-07 9 0

0111000
+117 0 *
Sh

0101100
+116 0 *
So

0100000
+115 0 *
Ve
1e-07
26 -6.36816335556624e-15 -1.46957615897682e-15
0 0

0101101
*
Ed
 1e-07 1 1 0
1  19 0 0 6.28318530717959
3  37 38CN 10 0 0 6.28318530717959
0

0101000
+113 0 -113 0 *
Ed
 1e-07 1 1 0
1  20 0 0 6.28318530717959
3  39 40CN 10 0 0 6.28318530717959
0

0101000
+113 0 -113 0 *
Wi

0101100
-112 0 +111 0 +112 0 -111 0 *
Fa
0  1e-07 10 0

0111000
+110 0 *
Sh

0101100
+109 0 *
So

0100000
+108 0 *
Ve
1e-07
26 -6.36816335556624e-15 -1.46957615897682e-15
0 0

0101101
*
Ed
 1e-07 1 1 0
1  21 0 0 6.28318530717959
3  41 42CN 11 0 0 6.28318530717959
0

0101000
+106 0 -106 0 *
Ed
 1e-07 1 1 0
1  22 0 0 6.28318530717959
3  43 44CN 11 0 0 6.28318530717959
0

0101000
+106 0 -106 0 *
Wi

0101100
-105 0 +104 0 +105 0 -104 0 *
Fa
0  1e-07 11 0

0111000
+103 0 *
Sh

0101100
+102 0 *
So

0100000
+101 0 *
Ve
1e-07
26 -6.36816335556624e-15 -1.46957615897682e-15
0 0

0101101
*
Ed
 1e-07 1 1 0
1  23 0 0 6.28318530717959
3  45 46CN 12 0 0 6.28318530717959
0

0101000
+99 0 -99 0 *
Ed
 1e-07 1 1 0
1  24 0 0 6.28318530717959
3  47 48CN 12 0 0 6.28318530717959
0

0101000
+99 0 -99 0 *
Wi

0101100
-98 0 +97 0 +98 0 -97 0 *
Fa
0  1e-07 12 0

0111000
+96 0 *
Sh

0101100
+95 0 *
So

0100000
+94 0 *
Ve
1e-07
26 -6.36816335556624e-15 -1.46957615897682e-15
0 0

0101101
*
Ed
 1e-07 1 1 0
1  25 0 0 6.28318530717959
3  49 50CN 13 0 0 6.28318530717959
0

0101000
+92 0 -92 0 *
Ed
 1e-07 1 1 0
1  26 0 0 6.28318530717959
3  51 52CN 13 0 0 6.28318530717959
0

0101000
+92 0 -92 0 *
Wi

0101100
-91 0 +90 0 +91 0 -90 0 *
Fa
0  1e-07 13 0

0111000
+89 0 *
Sh

0101100
+88 0 *
So

0100000
+87 0 *
Ve
1e-07
26 -6.36816335556624e-15 -1.46957615897682e-15
0 0

0101101
*
Ed
 1e-07 1 1 0
1  27 0 0 6.28318530717959
3  53 54CN 14 0 0 6.28318530717959
0

0101000
+85 0 -85 0 *
Ed
 1e-07 1 1 0
1  28 0 0 6.28318530717959
3  55 56CN 14 0 0 6.28318530717959
0

0101000
+85 0 -85 0 *
Wi

0101100
-84 0 +83 0 +84 0 -83 0 *
Fa
0  1e-07 14 0

0111000
+82 0 *
Sh

0101100
+81 0 *
So

0100000
+80 0 *
Ve
1e-07
26 -6.36816335556624e-15 -1.46957615897682e-15
0 0

0101101
*
Ed
 1e-07 1 1 0
1  29 0 0 6.28318530717959
3  57 58CN 15 0 0 6.28318530717959
0

0101000
+78 0 -78 0 *
Ed
 1e-07 1 1 0
1  30 0 0 6.28318530717959
3  59 60CN 15 0 0 6.28318530717959
0

0101000
+78 0 -78 0 *
Wi

0101100
-77 0 +76 0 +77 0 -76 0 *
Fa
0  1e-07 15 0

0111000
+75 0 *
Sh

0101100
+74 0 *
So

0100000
+73 0 *
Ve
1e-07
26 -6.36816335556624e-15 -1.46957615897682e-15
0 0

0101101
*
Ed
 1e-07 1 1 0
1  31 0 0 6.28318530717959
3  61 62CN 16 0 0 6.28318530717959
0

0101000
+71 0 -71 0 *
Ed
 1e-07 1 1 0
1  32 0 0 6.28318530717959
3  63 64CN 16 0 0 6.28318530717959
0

0101000
+71 0 -71 0 *
Wi

0101100
-70 0 +69 0 +70 0 -69 0 *
Fa
0  1e-07 16 0

0111000
+68 0 *
Sh

0101100
+67 0 *
So

0100000
+66 0 *
Ve
1e-07
26 -6.36816335556624e-15 -1.46957615897682e-15
0 0

0101101
*
Ed
 1e-07 1 1 0
1  33 0 0 6.28318530717959
3  65 66CN 17 0 0 6.28318530717959
0

0101000
+64 0 -64 0 *
Ed
 1e-07 1 1 0
1  34 0 0 6.28318530717959
3  67 68CN 17 0 0 6.28318530717959
0

0101000
+64 0 -64 0 *
Wi

0101100
-63 0 +62 0 +63 0 -62 0 *
Fa
0  1e-07 17 0

0111000
+61 0 *
Sh

0101100
+60 0 *
So

0100000
+59 0 *
Ve
1e-07
26 -6.36816335556624e-15 -1.46957615897682e-15
0 0

0101101
*
Ed
 1e-07 1 1 0
1  35 0 0 6.28318530717959
3  69 70CN 18 0 0 6.28318530717959
0

0101000
+57 0 -57 0 *
Ed
 1e-07 1 1 0
1  36 0 0 6.28318530717959
3  71 72CN 18 0 0 6.28318530717959
0

0101000
+57 0 -57 0 *
Wi

0101100
-56 0 +55 0 +56 0 -55 0 *
Fa
0  1e-07 18 0

0111000
+54 0 *
Sh

0101100
+53 0 *
So

0100000
+52 0 *
Ve
1e-07
26 -6.36816335556624e-15 -1.46957615897682e-15
0 0

0101101
*
Ed
 1e-07 1 1 0
1  37 0 0 6.28318530717959
3  73 74CN 19 0 0 6.28318530717959
0

0101000
+50 0 -50 0 *
Ed
 1e-07 1 1 0
1  38 0 0 6.28318530717959
3  75 76CN 19 0 0 6.28318530717959
0

0101000
+50 0 -50 0 *
Wi

0101100
-49 0 +48 0 +49 0 -48 0 *
Fa
0  1e-07 19 0

0111000
+47 0 *
Sh

0101100
+46 0 *
So

0100000
+45 0 *
Ve
1e-07
26 -6.36816335556624e-15 -1.46957615897682e-15
0 0

0101101
*
Ed
 1e-07 1 1 0
1  39 0 0 6.28318530717959
3  77 78CN 20 0 0 6.28318530717959
0

0101000
+43 0 -43 0 *
Ed
 1e-07 1 1 0
1  40 0 0 6.28318530717959
3  79 80CN 20 0 0 6.28318530717959
0

0101000
+43 0 -43 0 *
Wi

0101100
-42 0 +41 0 +42 0 -41 0 *
Fa
0  1e-07 20 0

0111000
+40 0 *
Sh

0101100
+39 0 *
So

0100000
+38 0 *
Ve
1e-07
26 -6.36816335556624e-15 -1.46957615897682e-15
0 0

0101101
*
Ed
 1e-07 1 1 0
1  41 0 0 6.28318530717959
3  81 82CN 21 0 0 6.28318530717959
0

0101000
+36 0 -36 0 *
Ed
 1e-07 1 1 0
1  42 0 0 6.28318530717959
3  83 84CN 21 0 0 6.28318530717959
0

0101000
+36 0 -36 0 *
Wi

0101100
-35 0 +34 0 +35 0 -34 0 *
Fa
0  1e-07 21 0

0111000
+33 0 *
Sh

0101100
+32 0 *
So

0100000
+31 0 *
Ve
1e-07
26 -6.36816335556624e-15 -1.46957615897682e-15
0 0

0101101
*
Ed
 1e-07 1 1 0
1  43 0 0 6.28318530717959
3  85 86CN 22 0 0 6.28318530717959
0

0101000
+29 0 -29 0 *
Ed
 1e-07 1 1 0
1  44 0 0 6.28318530717959
3  87 88CN 22 0 0 6.28318530717959
0

0101000
+29 0 -29 0 *
Wi

0101100
-28 0 +27 0 +28 0 -27 0 *
Fa
0  1e-07 22 0

0111000
+26 0 *
Sh

0101100
+25 0 *
So

0100000
+24 0 *
Ve
1e-07
26 -6.36816335556624e-15 -1.46957615897682e-15
0 0

0101101
*
Ed
 1e-07 1 1 0
1  45 0 0 6.28318530717959
3  89 90CN 23 0 0 6.28318530717959
0

0101000
+22 0 -22 0 *
Ed
 1e-07 1 1 0
1  46 0 0 6.28318530717959
3  91 92CN 23 0 0 6.28318530717959
0

0101000
+22 0 -22 0 *
Wi

0101100
-21 0 +20 0 +21 0 -20 0 *
Fa
0  1e-07 23 0

0111000
+19 0 *
Sh

0101100
+18 0 *
So

0100000
+17 0 *
Ve
1e-07
26 -6.36816335556624e-15 -1.46957615897682e-15
0 0

0101101
*
Ed
 1e-07 1 1 0
1  47 0 0 6.28318530717959
3  93 94CN 24 0 0 6.28318530717959
0

0101000
+15 0 -15 0 *
Ed
 1e-07 1 1 0
1  48 0 0 6.28318530717959
3  95 96CN 24 0 0 6.28318530717959
0

0101000
+15 0 -15 0 *
Wi

0101100
-14 0 +13 0 +14 0 -13 0 *
Fa
0  1e-07 24 0

0111000
+12 0 *
Sh

0101100
+11 0 *
So

0100000
+10 0 *
Ve
1e-07
26 -6.36816335556624e-15 -1.46957615897682e-15
0 0

0101101
*
Ed
 1e-07 1 1 0
1  49 0 0 6.28318530717959
3  97 98CN 25 0 0 6.28318530717959
0

0101000
+8 0 -8 0 *
Ed
 1e-07 1 1 0
1  50 0 0 6.28318530717959
3  99 100CN 25 0 0 6.28318530717959
0

0101000
+8 0 -8 0 *
Wi

0101100
-7 0 +6 0 +7 0 -6 0 *
Fa
0  1e-07 25 0

0111000
+5 0 *
Sh

0101100
+4 0 *
So

0100000
+3 0 *
Co

1100000
+170 1 +163 2 +156 3 +149 4 +142 5 +135 6 +128 7 +121 8 +114 9 +107 10 
+100 11 +93 12 +86 13 +79 14 +72 15 +65 16 +58 17 +51 18 +44 19 +37 20 
+30 21 +23 22 +16 23 +9 24 +2 25 *

+1 0 