DBRep_DrawableShape

CASCADE Topology V3, (c) Open Cascade
Locations 4
1
              1               0               0            -100 
              0               1               0              50 
              0               0               1               0 
1
              1               0               0              75 
              0               1               0             -75 
              0               0               1               0 
1
              1               0               0              75 
              0               1               0              75 
              0               0               1               0 
1
              1               0               0             150 
              0               1               0               0 
              0               0               1               0 
Curve2ds 22
1 0 0 1 0 
1 0 6.2831853071795862 1 0 
1 6.2831853071795862 -0 0 1 
1 0 -0 0 1 
1 0 60 1 0 
2 0 0 1 0 -0 1 25
1 6.2831853071795862 -0 0 1 
1 0 -0 0 1 
1 0 0 1 0 
2 0 0 1 0 -0 1 25
1 0 1.5707963267948966 1 0 
1 6.2831853071795862 -6.2831853071795862 0 1 
1 0 -6.2831853071795862 0 1 
1 0 -1.5707963267948966 1 0 
1 0 0 1 0 
1 0 6.2831853071795862 1 0 
1 6.2831853071795862 -0 0 1 
1 0 -0 0 1 
1 0 0 1 0 
1 0 6.2831853071795862 1 0 
1 6.2831853071795862 -0 0 1 
1 0 -0 0 1 
Curves 10
2 0 0 -2.4492935982947065e-15 0 0 1 1 0 -0 -0 1 0 45
2 35 -8.572527594031473e-15 0 -2.4492935982947064e-16 -1 0 1 -2.4492935982947064e-16 0 0 0 1 10
2 0 0 60 0 0 1 1 0 -0 -0 1 0 25
1 25 -6.1232339957367661e-15 0 0 0 1 
2 0 0 0 0 0 1 1 0 -0 -0 1 0 25
2 0 0 0 -2.4492935982947064e-16 -1 0 1 -2.4492935982947064e-16 0 0 0 1 30
2 0 0 -3.67394039744206e-15 0 0 1 1 0 -0 -0 1 0 65
2 50 -1.2246467991473532e-14 0 -2.4492935982947064e-16 -1 0 1 -2.4492935982947064e-16 0 0 0 1 15
2 0 0 -2.9391523179536475e-15 0 0 1 1 0 -0 -0 1 0 52
2 40 -9.7971743931788261e-15 0 -2.4492935982947064e-16 -1 0 1 -2.4492935982947064e-16 0 0 0 1 12
Polygon3D 0
PolygonOnTriangulations 0
Surfaces 7
5 0 0 0 0 0 1 1 0 -0 -0 1 0 35 10
2 0 0 0 0 0 1 1 0 -0 -0 1 0 25
1 0 0 60 0 0 1 1 0 -0 -0 1 0 
1 0 0 0 0 0 1 1 0 -0 -0 1 0 
4 0 0 0 0 0 1 1 0 -0 -0 1 0 30
5 0 0 0 0 0 1 1 0 -0 -0 1 0 50 15
5 0 0 0 0 0 1 1 0 -0 -0 1 0 40 12
Triangulations 0

TShapes 44
Ve
1e-07
45 -1.10218211923262e-14 -2.44929359829471e-15
0 0

0101101
*
Ed
 1e-07 1 1 0
1  1 0 0 6.28318530717959
3  1 2CN 1 0 0 6.28318530717959
0

0101000
+44 0 -44 0 *
Ed
 1e-07 1 1 0
1  2 0 0 6.28318530717959
3  3 4CN 1 0 0 6.28318530717959
0

0101000
+44 0 -44 0 *
Wi

0101100
-43 0 +42 0 +43 0 -42 0 *
Fa
0  1e-07 1 0

0111000
+41 0 *
Sh

0101100
+40 0 *
So

0100000
+39 0 *
Ve
1e-07
25 -6.12323399573677e-15 60
0 0

0101101
*
Ed
 1e-07 1 1 0
1  3 0 0 6.28318530717959
2  5 2 0 0 6.28318530717959
2  6 3 0 0 6.28318530717959
0

0101000
+37 0 -37 0 *
Ve
1e-07
25 -6.12323399573677e-15 0
0 0

0101101
*
Ed
 1e-07 1 1 0
1  4 0 0 60
3  7 8CN 2 0 0 60
0

0101000
-37 0 +35 0 *
Ed
 1e-07 1 1 0
1  5 0 0 6.28318530717959
2  9 2 0 0 6.28318530717959
2  10 4 0 0 6.28318530717959
0

0101000
+35 0 -35 0 *
Wi

0101100
-36 0 +34 0 +33 0 -34 0 *
Fa
0  1e-07 2 0

0111000
+32 0 *
Wi

0101100
+36 0 *
Fa
0  1e-07 3 0

0111000
+30 0 *
Wi

0101100
-33 0 *
Fa
0  1e-07 4 0

0111000
-28 0 *
Sh

0101100
+31 0 +29 0 -27 0 *
So

0100000
+26 0 *
Ve
1e-07
1.83697019872103e-15 -4.49927934798557e-31 30
0 0

0101101
*
Ed
 1e-07 1 1 1
2  11 5 0 0 6.28318530717959
0

0101000
+24 0 -24 0 *
Ve
1e-07
1.83697019872103e-15 -4.49927934798557e-31 -30
0 0

0101101
*
Ed
 1e-07 1 1 0
1  6 0 4.71238898038469 7.85398163397448
3  12 13CN 5 0 4.71238898038469 7.85398163397448
0

0101000
-24 0 +22 0 *
Ed
 1e-07 1 1 1
2  14 5 0 0 6.28318530717959
0

0101000
+22 0 -22 0 *
Wi

0101100
-23 0 +21 0 +20 0 -21 0 *
Fa
0  1e-07 5 0

0111000
+19 0 *
Sh

0101100
+18 0 *
So

0100000
+17 0 *
Ve
1e-07
65 -1.59204083889156e-14 -3.67394039744206e-15
0 0

0101101
*
Ed
 1e-07 1 1 0
1  7 0 0 6.28318530717959
3  15 16CN 6 0 0 6.28318530717959
0

0101000
+15 0 -15 0 *
Ed
 1e-07 1 1 0
1  8 0 0 6.28318530717959
3  17 18CN 6 0 0 6.28318530717959
0

0101000
+15 0 -15 0 *
Wi

0101100
-14 0 +13 0 +14 0 -13 0 *
Fa
0  1e-07 6 0

0111000
+12 0 *
Sh

0101100
+11 0 *
So

0100000
+10 0 *
Ve
1e-07
52 -1.27363267111325e-14 -2.93915231795365e-15
0 0

0101101
*
Ed
 1e-07 1 1 0
1  9 0 0 6.28318530717959
3  19 20CN 7 0 0 6.28318530717959
0

0101000
+8 0 -8 0 *
Ed
 1e-07 1 1 0
1  10 0 0 6.28318530717959
3  21 22CN 7 0 0 6.28318530717959
0

0101000
+8 0 -8 0 *
Wi

0101100
-7 0 +6 0 +7 0 -6 0 *
Fa
0  1e-07 7 0

0111000
+5 0 *
Sh

0101100
+4 0 *
So

0100000
+3 0 *
Co

1100000
+38 1 +25 2 +16 3 +9 0 +2 4 *

+1 0 